<?xml version="1.0" encoding="UTF-8"?>
<svg xmlns="http://www.w3.org/2000/svg" xmlns:xlink="http://www.w3.org/1999/xlink" width="20pt" height="20pt" viewBox="0 0 20 20" version="1.1">
<g id="surface1">
<path style=" stroke:none;fill-rule:nonzero;fill:rgb(0%,0%,0%);fill-opacity:1;" d="M 18.25 5.113281 C 17.371094 3.609375 16.1875 2.425781 14.6875 1.550781 C 13.191406 0.675781 11.554688 0.238281 9.777344 0.238281 C 8.003906 0.238281 6.371094 0.675781 4.871094 1.550781 C 3.371094 2.425781 2.1875 3.609375 1.3125 5.113281 C 0.4375 6.605469 0 8.246094 0 10.019531 C 0 12.152344 0.621094 14.066406 1.867188 15.769531 C 3.109375 17.46875 4.714844 18.648438 6.683594 19.300781 C 6.914062 19.34375 7.085938 19.3125 7.191406 19.210938 C 7.304688 19.109375 7.359375 18.984375 7.359375 18.828125 C 7.359375 18.804688 7.359375 18.578125 7.351562 18.144531 C 7.351562 17.710938 7.347656 17.332031 7.347656 17.011719 L 7.054688 17.0625 C 6.871094 17.09375 6.632812 17.109375 6.347656 17.105469 C 6.066406 17.101562 5.769531 17.070312 5.464844 17.015625 C 5.15625 16.960938 4.871094 16.835938 4.609375 16.636719 C 4.347656 16.433594 4.15625 16.171875 4.050781 15.851562 L 3.921875 15.558594 C 3.835938 15.363281 3.703125 15.148438 3.519531 14.910156 C 3.339844 14.671875 3.152344 14.507812 2.96875 14.425781 L 2.878906 14.359375 C 2.816406 14.320312 2.761719 14.269531 2.710938 14.207031 C 2.664062 14.148438 2.625 14.089844 2.597656 14.03125 C 2.574219 13.96875 2.59375 13.921875 2.664062 13.882812 C 2.730469 13.847656 2.851562 13.824219 3.03125 13.824219 L 3.285156 13.863281 C 3.457031 13.898438 3.664062 14 3.917969 14.171875 C 4.164062 14.339844 4.371094 14.5625 4.535156 14.832031 C 4.730469 15.179688 4.964844 15.445312 5.238281 15.628906 C 5.515625 15.808594 5.796875 15.902344 6.074219 15.902344 C 6.355469 15.902344 6.597656 15.882812 6.800781 15.839844 C 7.003906 15.792969 7.191406 15.734375 7.371094 15.648438 C 7.449219 15.078125 7.660156 14.640625 7.996094 14.335938 C 7.511719 14.285156 7.078125 14.207031 6.691406 14.105469 C 6.304688 14.003906 5.90625 13.839844 5.496094 13.609375 C 5.082031 13.382812 4.742188 13.097656 4.46875 12.757812 C 4.195312 12.417969 3.972656 11.96875 3.800781 11.417969 C 3.625 10.867188 3.539062 10.230469 3.539062 9.507812 C 3.539062 8.484375 3.875 7.605469 4.546875 6.886719 C 4.230469 6.113281 4.261719 5.246094 4.636719 4.285156 C 4.878906 4.210938 5.246094 4.269531 5.730469 4.460938 C 6.214844 4.652344 6.570312 4.816406 6.792969 4.949219 C 7.019531 5.085938 7.199219 5.203125 7.335938 5.292969 C 8.125 5.074219 8.941406 4.964844 9.777344 4.964844 C 10.621094 4.964844 11.433594 5.074219 12.226562 5.292969 L 12.707031 4.988281 C 13.039062 4.785156 13.429688 4.597656 13.878906 4.429688 C 14.328125 4.257812 14.675781 4.210938 14.910156 4.285156 C 15.292969 5.246094 15.328125 6.113281 15.011719 6.886719 C 15.683594 7.605469 16.019531 8.484375 16.019531 9.511719 C 16.019531 10.230469 15.929688 10.871094 15.757812 11.425781 C 15.582031 11.980469 15.359375 12.429688 15.085938 12.761719 C 14.808594 13.097656 14.464844 13.382812 14.050781 13.609375 C 13.640625 13.839844 13.238281 14.003906 12.855469 14.105469 C 12.46875 14.207031 12.035156 14.285156 11.550781 14.335938 C 11.992188 14.71875 12.210938 15.320312 12.210938 16.144531 L 12.210938 18.828125 C 12.210938 18.984375 12.265625 19.109375 12.371094 19.210938 C 12.476562 19.3125 12.644531 19.34375 12.875 19.300781 C 14.84375 18.648438 16.449219 17.46875 17.695312 15.769531 C 18.9375 14.066406 19.558594 12.148438 19.558594 10.015625 C 19.558594 8.246094 19.121094 6.605469 18.25 5.113281 Z M 18.25 5.113281 "/>
</g>
</svg>
